<svg xmlns="http://www.w3.org/2000/svg" xmlns:xlink="http://www.w3.org/1999/xlink" width="391" zoomAndPan="magnify" viewBox="0 0 293.25 70.499998" height="94" preserveAspectRatio="xMidYMid meet"><path fill="#ffffff" d="M 11.933594 11.46875 C 13.5625 11.46875 14.949219 11.65625 16.003906 11.992188 C 14.421875 10.800781 12.796875 10.175781 11.125 10.175781 C 9.210938 10.175781 7.773438 10.941406 6.820312 12.421875 C 6.296875 13.1875 6.054688 13.945312 6.054688 14.710938 C 6.054688 15.476562 6.296875 16.292969 6.769531 17.097656 C 7.636719 18.628906 9.40625 19.347656 12.128906 19.347656 C 14.851562 19.347656 18.53125 18.582031 23.121094 17.007812 L 25.078125 16.480469 L 27.425781 17.097656 L 27.425781 17.148438 L 27.566406 17.148438 L 27.566406 33.578125 C 27.378906 33.675781 27.042969 33.863281 26.660156 34.050781 C 26.277344 34.292969 25.992188 34.433594 25.796875 34.53125 L 25.746094 34.578125 C 25.941406 34.71875 26.226562 34.863281 26.660156 35.058594 C 27.042969 35.246094 27.378906 35.433594 27.566406 35.53125 L 27.566406 55.496094 L 25.65625 57.019531 C 26.464844 57.019531 27.132812 57.117188 27.664062 57.304688 L 27.664062 57.972656 C 27.851562 57.972656 28.09375 58.117188 28.429688 58.355469 C 28.519531 58.453125 28.664062 58.933594 28.851562 59.691406 C 29.050781 60.457031 29.285156 61.222656 29.53125 61.890625 C 29.765625 62.558594 29.953125 62.890625 30.101562 62.890625 C 30.238281 62.890625 30.433594 62.558594 30.671875 61.890625 C 30.917969 61.222656 31.152344 60.457031 31.339844 59.691406 C 31.535156 58.933594 31.722656 58.453125 31.820312 58.355469 C 32.058594 58.117188 32.300781 57.972656 32.585938 57.972656 L 32.585938 57.304688 C 33.0625 57.117188 33.730469 57.019531 34.59375 57.019531 L 32.675781 55.496094 L 32.675781 35.53125 C 32.875 35.433594 33.207031 35.246094 33.589844 35.058594 C 33.972656 34.863281 34.257812 34.71875 34.496094 34.578125 L 34.445312 34.53125 C 33.304688 33.960938 32.726562 33.625 32.675781 33.578125 L 32.675781 18.34375 C 33.0625 18.433594 33.542969 18.628906 34.113281 18.867188 C 34.691406 19.152344 35.027344 19.296875 35.117188 19.296875 C 36.699219 17.863281 39.039062 16.242188 42.195312 14.476562 C 45.300781 12.757812 47.691406 11.84375 49.410156 11.84375 C 50.128906 11.84375 50.65625 12.039062 50.992188 12.375 C 51.277344 12.855469 51.417969 13.328125 51.328125 13.808594 C 51.230469 14.28125 50.992188 14.710938 50.609375 15.046875 C 49.460938 16.046875 47.214844 16.527344 43.816406 16.527344 C 45.113281 17.148438 46.351562 17.433594 47.550781 17.433594 C 48.691406 17.433594 49.695312 17.195312 50.609375 16.675781 C 51.417969 16.195312 52.042969 15.574219 52.515625 14.710938 C 52.800781 14.140625 52.996094 13.613281 52.996094 13.042969 L 52.996094 12.136719 C 52.996094 11.371094 52.566406 10.507812 51.75 9.554688 C 50.992188 8.699219 49.84375 8.269531 48.308594 8.269531 C 45.25 8.269531 41.09375 9.9375 35.785156 13.1875 L 34.023438 14.09375 L 32.675781 13.757812 L 32.675781 11.894531 L 34.59375 10.320312 C 33.640625 10.320312 32.972656 10.273438 32.585938 10.085938 L 32.585938 9.417969 C 32.390625 9.417969 32.105469 9.320312 31.820312 9.035156 C 31.722656 8.9375 31.535156 8.457031 31.339844 7.691406 C 31.152344 6.933594 30.917969 6.214844 30.671875 5.546875 C 30.433594 4.878906 30.238281 4.496094 30.101562 4.496094 C 29.953125 4.496094 29.765625 4.878906 29.53125 5.546875 C 29.285156 6.214844 29.050781 6.933594 28.851562 7.691406 C 28.664062 8.457031 28.519531 8.9375 28.429688 9.035156 C 28.046875 9.320312 27.761719 9.417969 27.664062 9.417969 L 27.664062 10.085938 C 27.230469 10.273438 26.5625 10.320312 25.65625 10.320312 L 27.566406 11.894531 L 27.566406 12.5625 C 27.042969 12.519531 26.226562 12.136719 25.078125 11.46875 C 23.503906 12.375 21.253906 13.277344 18.34375 14.191406 C 15.375 15.144531 12.984375 15.574219 11.078125 15.574219 C 9.445312 15.574219 8.492188 15.242188 8.109375 14.523438 C 7.871094 14.042969 7.871094 13.570312 8.058594 13.089844 C 8.253906 12.609375 8.589844 12.277344 9.070312 11.992188 C 9.738281 11.65625 10.695312 11.46875 11.933594 11.46875 Z M 11.933594 11.46875 " fill-opacity="1" fill-rule="nonzero"></path><path fill="#ffffff" d="M 56.382812 49.574219 L 54.472656 51.144531 C 55.378906 51.144531 56.046875 51.246094 56.480469 51.382812 L 56.480469 52.050781 C 56.675781 52.050781 56.960938 52.195312 57.34375 52.433594 C 57.582031 52.765625 58.0625 52.914062 58.820312 52.914062 L 59.015625 52.914062 C 59.78125 52.914062 60.253906 52.765625 60.539062 52.433594 C 60.832031 52.195312 61.121094 52.050781 61.40625 52.050781 L 61.40625 51.382812 C 61.789062 51.246094 62.457031 51.144531 63.363281 51.144531 L 61.503906 49.574219 L 61.503906 38.351562 L 64.363281 39.449219 L 67.285156 38.351562 L 67.285156 49.574219 L 65.375 51.144531 C 66.28125 51.144531 66.949219 51.246094 67.382812 51.382812 L 67.382812 52.050781 C 67.570312 52.050781 67.855469 52.195312 68.238281 52.433594 C 68.484375 52.765625 69.003906 52.914062 69.769531 52.914062 L 69.910156 52.914062 C 70.675781 52.914062 71.15625 52.765625 71.441406 52.433594 C 71.824219 52.195312 72.109375 52.050781 72.308594 52.050781 L 72.308594 51.382812 C 72.683594 51.246094 73.359375 51.144531 74.3125 51.144531 L 72.398438 49.574219 L 72.398438 23.453125 L 74.3125 21.921875 C 73.449219 21.921875 72.78125 21.832031 72.308594 21.636719 L 72.308594 20.96875 C 72.109375 20.96875 71.824219 20.871094 71.441406 20.585938 C 71.207031 20.300781 70.675781 20.160156 69.910156 20.113281 L 69.769531 20.113281 C 68.957031 20.160156 68.433594 20.300781 68.238281 20.585938 C 67.855469 20.871094 67.570312 20.96875 67.382812 20.96875 L 67.382812 21.636719 C 66.851562 21.832031 66.183594 21.921875 65.375 21.921875 L 67.285156 23.453125 L 67.285156 33.195312 L 64.363281 34.246094 L 61.503906 33.195312 L 61.503906 23.453125 L 63.363281 21.921875 C 62.554688 21.921875 61.886719 21.832031 61.40625 21.636719 L 61.40625 20.96875 C 61.121094 20.96875 60.832031 20.871094 60.539062 20.585938 C 60.304688 20.300781 59.78125 20.160156 59.015625 20.113281 L 58.820312 20.113281 C 58.0625 20.160156 57.53125 20.300781 57.34375 20.585938 C 56.960938 20.871094 56.675781 20.96875 56.480469 20.96875 L 56.480469 21.636719 C 55.957031 21.832031 55.289062 21.921875 54.472656 21.921875 L 56.382812 23.453125 Z M 56.382812 49.574219 " fill-opacity="1" fill-rule="nonzero"></path><path fill="#ffffff" d="M 77.898438 49.574219 L 76.03125 51.144531 C 76.9375 51.144531 77.605469 51.246094 77.988281 51.382812 L 77.988281 52.050781 C 78.234375 52.050781 78.519531 52.195312 78.851562 52.433594 C 79.089844 52.765625 79.617188 52.914062 80.378906 52.914062 L 80.574219 52.914062 C 81.289062 52.914062 81.761719 52.765625 82.058594 52.433594 C 82.441406 52.195312 82.726562 52.050781 82.914062 52.050781 C 83.34375 52.097656 84.160156 52.480469 85.398438 53.148438 C 86.597656 52.433594 87.457031 52.050781 88.027344 52.050781 C 88.222656 52.050781 88.507812 52.195312 88.890625 52.480469 C 89.273438 52.765625 89.796875 52.914062 90.464844 52.914062 C 91.132812 52.914062 91.566406 52.816406 91.851562 52.628906 C 92.144531 52.433594 92.28125 52.246094 92.28125 52.050781 C 92.28125 51.863281 92.476562 51.628906 92.902344 51.429688 C 93.285156 51.246094 93.953125 51.144531 94.917969 51.144531 L 92.949219 49.574219 L 92.949219 44.605469 L 94.917969 43.035156 C 94.148438 43.035156 93.53125 42.984375 93.148438 42.839844 C 92.761719 42.742188 92.519531 42.601562 92.429688 42.40625 C 92.332031 42.21875 92.234375 42.074219 92.183594 41.886719 C 92.09375 41.738281 91.949219 41.601562 91.664062 41.453125 C 91.378906 41.355469 90.992188 41.265625 90.464844 41.265625 C 89.796875 41.265625 89.324219 41.355469 89.035156 41.550781 C 88.742188 41.738281 88.652344 41.984375 88.652344 42.171875 C 88.652344 42.359375 88.410156 42.554688 88.027344 42.742188 C 87.601562 42.9375 86.933594 43.035156 86.019531 43.035156 L 87.886719 44.605469 L 87.886719 47.472656 L 85.398438 48.140625 L 83.011719 47.472656 L 83.011719 39.066406 L 84.878906 39.066406 L 86.402344 40.972656 C 86.402344 40.167969 86.5 39.5 86.6875 38.96875 L 87.355469 38.96875 C 87.355469 38.78125 87.457031 38.496094 87.742188 38.113281 C 88.027344 37.917969 88.171875 37.398438 88.222656 36.582031 L 88.222656 36.445312 C 88.171875 35.679688 88.027344 35.148438 87.742188 34.914062 C 87.457031 34.628906 87.355469 34.34375 87.355469 34.050781 L 86.6875 34.050781 C 86.5 33.578125 86.402344 32.910156 86.402344 32.046875 L 84.878906 33.960938 L 83.011719 33.960938 L 83.011719 25.554688 L 85.398438 24.886719 L 87.886719 25.554688 L 87.886719 28.421875 L 86.019531 29.992188 C 86.785156 29.992188 87.355469 30.089844 87.742188 30.1875 C 88.125 30.328125 88.410156 30.472656 88.507812 30.613281 C 88.605469 30.808594 88.652344 30.945312 88.742188 31.140625 C 88.792969 31.328125 88.9375 31.476562 89.226562 31.574219 C 89.511719 31.710938 89.894531 31.761719 90.464844 31.761719 C 91.132812 31.761719 91.566406 31.664062 91.851562 31.476562 C 92.144531 31.28125 92.28125 31.09375 92.28125 30.90625 C 92.28125 30.710938 92.476562 30.472656 92.902344 30.277344 C 93.285156 30.089844 93.953125 29.992188 94.917969 29.992188 L 92.949219 28.421875 L 92.949219 23.453125 L 94.917969 21.921875 C 93.953125 21.921875 93.285156 21.832031 92.902344 21.636719 C 92.476562 21.449219 92.28125 21.253906 92.28125 21.015625 C 92.28125 20.828125 92.144531 20.585938 91.851562 20.398438 C 91.566406 20.203125 91.132812 20.113281 90.464844 20.113281 C 89.796875 20.113281 89.273438 20.25 88.890625 20.535156 C 88.507812 20.828125 88.222656 20.96875 88.027344 20.96875 C 87.457031 20.96875 86.597656 20.632812 85.398438 19.867188 C 84.160156 20.585938 83.34375 20.917969 82.914062 20.917969 C 82.726562 20.917969 82.441406 20.828125 82.058594 20.535156 C 81.671875 20.25 81.144531 20.113281 80.476562 20.113281 C 79.617188 20.113281 79.089844 20.300781 78.851562 20.585938 C 78.519531 20.871094 78.234375 20.96875 77.988281 20.96875 L 77.988281 21.636719 C 77.515625 21.832031 76.894531 21.921875 76.03125 21.921875 L 77.898438 23.453125 Z M 77.898438 49.574219 " fill-opacity="1" fill-rule="nonzero"></path><path fill="#fa0000" d="M 112.0625 11.46875 C 113.304688 11.46875 114.648438 11.65625 116.074219 11.992188 C 114.5 10.800781 112.878906 10.175781 111.25 10.175781 C 109.292969 10.175781 107.855469 10.941406 106.902344 12.421875 C 106.371094 13.1875 106.136719 13.945312 106.136719 14.710938 C 106.136719 15.527344 106.371094 16.339844 106.851562 17.148438 C 107.71875 18.628906 109.480469 19.347656 112.160156 19.347656 C 114.835938 19.347656 118.5625 18.582031 123.25 17.007812 L 125.160156 16.480469 L 127.644531 17.148438 L 127.644531 31.613281 C 125.925781 31.140625 124.304688 30.710938 122.769531 30.328125 L 122.769531 18.484375 C 122.199219 18.679688 121.335938 18.914062 120.195312 19.25 C 119.042969 19.632812 118.226562 19.867188 117.65625 20.0625 L 117.65625 29.804688 C 115.269531 29.894531 113.6875 30.660156 112.929688 32.046875 C 112.445312 32.910156 112.210938 33.714844 112.210938 34.480469 C 112.210938 35.296875 112.445312 36.0625 112.929688 36.777344 C 113.882812 38.253906 115.316406 38.96875 117.273438 38.96875 L 117.65625 38.96875 L 117.65625 55.496094 L 115.742188 57.019531 C 116.554688 57.019531 117.226562 57.117188 117.753906 57.304688 L 117.753906 57.972656 C 118.039062 57.972656 118.324219 58.117188 118.613281 58.355469 C 118.710938 58.453125 118.847656 58.933594 119.042969 59.691406 C 119.230469 60.457031 119.425781 61.222656 119.664062 61.890625 C 119.859375 62.558594 120.046875 62.890625 120.234375 62.890625 C 120.332031 62.890625 120.527344 62.558594 120.765625 61.890625 C 120.953125 61.222656 121.195312 60.457031 121.382812 59.691406 C 121.578125 58.933594 121.71875 58.453125 121.816406 58.355469 C 122.101562 58.117188 122.386719 57.972656 122.671875 57.972656 L 122.769531 57.972656 L 122.769531 57.253906 C 123.152344 57.117188 123.820312 57.019531 124.6875 57.019531 L 122.769531 55.496094 L 122.769531 34.480469 C 124.351562 34.914062 125.976562 35.433594 127.644531 36.0625 L 127.644531 49.574219 L 125.777344 51.144531 C 126.644531 51.144531 127.3125 51.246094 127.746094 51.382812 L 127.746094 52.050781 C 127.933594 52.050781 128.175781 52.195312 128.511719 52.433594 C 128.601562 52.578125 128.746094 53.011719 128.933594 53.769531 C 129.128906 54.535156 129.367188 55.300781 129.601562 55.96875 C 129.847656 56.636719 130.035156 56.96875 130.230469 56.96875 C 130.371094 56.96875 130.566406 56.636719 130.753906 55.917969 C 130.949219 55.25 131.183594 54.484375 131.371094 53.730469 C 131.570312 52.960938 131.660156 52.53125 131.707031 52.433594 C 132 52.246094 132.285156 52.097656 132.667969 52.097656 L 132.667969 51.382812 C 133.042969 51.246094 133.722656 51.144531 134.578125 51.144531 L 134.675781 51.144531 L 132.667969 49.574219 L 132.667969 35.53125 C 132.855469 35.433594 133.191406 35.246094 133.574219 35.058594 C 133.957031 34.863281 134.242188 34.71875 134.480469 34.578125 L 132.667969 33.578125 L 132.667969 15.046875 L 134.675781 13.472656 C 133.910156 13.472656 133.289062 13.425781 132.90625 13.277344 C 132.523438 13.1875 132.285156 13.042969 132.1875 12.855469 C 132.089844 12.707031 132 12.5625 131.953125 12.375 C 131.855469 12.1875 131.707031 12.039062 131.421875 11.894531 C 131.136719 11.804688 130.753906 11.707031 130.230469 11.707031 C 129.5625 11.707031 129.03125 11.84375 128.648438 12.136719 C 128.265625 12.421875 127.980469 12.5625 127.792969 12.5625 C 127.3125 12.5625 126.457031 12.226562 125.160156 11.46875 C 123.585938 12.375 121.335938 13.277344 118.375 14.238281 C 115.40625 15.191406 113.019531 15.625 111.109375 15.625 C 109.4375 15.625 108.476562 15.289062 108.191406 14.574219 C 108.09375 14.378906 108.003906 14.09375 108.003906 13.808594 C 108.003906 13.613281 108.050781 13.375 108.140625 13.089844 C 108.289062 12.660156 108.621094 12.324219 109.191406 12.039062 C 110.007812 11.65625 110.960938 11.46875 112.0625 11.46875 Z M 114.265625 34.628906 C 114.648438 33.960938 115.652344 33.578125 117.273438 33.578125 L 117.65625 33.578125 L 115.839844 34.578125 C 116.035156 34.71875 116.367188 34.863281 116.746094 35.058594 C 117.128906 35.246094 117.421875 35.433594 117.65625 35.53125 L 117.65625 37.683594 C 116.605469 37.632812 115.789062 37.445312 115.21875 37.152344 C 114.738281 36.917969 114.402344 36.535156 114.214844 36.0625 C 114.019531 35.582031 114.019531 35.101562 114.265625 34.628906 Z M 114.265625 34.628906 " fill-opacity="1" fill-rule="nonzero"></path><path fill="#ffffff" d="M 138.054688 20.96875 L 138.054688 21.636719 C 137.671875 21.832031 137.003906 21.878906 136.097656 21.878906 L 137.964844 23.453125 L 137.964844 49.574219 L 136.097656 51.144531 C 137.003906 51.144531 137.671875 51.246094 138.054688 51.382812 L 138.054688 52.050781 C 138.25 52.050781 138.585938 52.195312 138.96875 52.433594 C 139.207031 52.765625 139.6875 52.914062 140.445312 52.914062 L 140.640625 52.914062 C 141.359375 52.914062 141.832031 52.765625 142.125 52.433594 C 142.507812 52.195312 142.792969 52.050781 142.980469 52.050781 C 143.414062 52.050781 144.269531 52.433594 145.515625 53.148438 C 146.757812 52.433594 147.570312 52.050781 148.054688 52.050781 C 148.242188 52.050781 148.527344 52.195312 148.957031 52.480469 C 149.339844 52.765625 149.863281 52.914062 150.53125 52.914062 C 151.199219 52.914062 151.632812 52.816406 151.917969 52.628906 C 152.210938 52.433594 152.351562 52.246094 152.351562 52.050781 C 152.351562 51.863281 152.546875 51.628906 152.96875 51.429688 C 153.351562 51.246094 154.023438 51.144531 154.984375 51.144531 L 153.019531 49.574219 L 153.019531 40.019531 L 154.984375 38.496094 C 154.21875 38.496094 153.597656 38.449219 153.214844 38.300781 C 152.832031 38.203125 152.585938 38.066406 152.496094 37.871094 C 152.398438 37.683594 152.300781 37.535156 152.253906 37.347656 C 152.164062 37.203125 152.015625 37.0625 151.730469 36.917969 C 151.445312 36.820312 151.0625 36.730469 150.53125 36.730469 C 149.863281 36.730469 149.390625 36.820312 149.105469 37.015625 C 148.8125 37.203125 148.722656 37.445312 148.722656 37.632812 C 148.722656 37.828125 148.476562 38.015625 148.09375 38.203125 C 147.667969 38.398438 147 38.496094 146.085938 38.496094 L 148.003906 40.019531 L 148.003906 47.472656 L 145.515625 48.140625 L 143.078125 47.472656 L 143.078125 23.453125 L 144.988281 21.878906 C 144.03125 21.878906 143.363281 21.832031 142.980469 21.636719 L 142.980469 20.96875 C 142.792969 20.96875 142.507812 20.871094 142.125 20.585938 C 141.878906 20.300781 141.40625 20.160156 140.640625 20.113281 L 140.445312 20.113281 C 139.6875 20.160156 139.15625 20.300781 138.96875 20.585938 C 138.585938 20.871094 138.25 20.96875 138.054688 20.96875 Z M 138.054688 20.96875 " fill-opacity="1" fill-rule="nonzero"></path><path fill="#ffffff" d="M 157.375 49.574219 L 155.507812 51.144531 C 156.410156 51.144531 157.078125 51.246094 157.464844 51.382812 L 157.464844 52.050781 C 157.660156 52.050781 157.992188 52.195312 158.375 52.433594 C 158.613281 52.765625 159.09375 52.914062 159.851562 52.914062 L 160.046875 52.914062 C 160.765625 52.914062 161.238281 52.765625 161.53125 52.433594 C 161.914062 52.195312 162.199219 52.050781 162.4375 52.050781 L 162.4375 51.382812 C 162.820312 51.246094 163.441406 51.144531 164.394531 51.144531 L 162.535156 49.574219 L 162.535156 41.265625 C 162.917969 41.308594 163.726562 41.640625 164.925781 42.316406 C 166.164062 41.640625 166.980469 41.265625 167.410156 41.265625 C 167.648438 41.265625 167.933594 41.40625 168.269531 41.640625 C 168.464844 41.933594 168.984375 42.074219 169.75 42.074219 L 169.9375 42.074219 C 170.707031 42.074219 171.234375 41.933594 171.472656 41.640625 C 171.707031 41.40625 171.992188 41.265625 172.328125 41.265625 L 172.328125 40.597656 C 172.761719 40.402344 173.429688 40.304688 174.292969 40.304688 L 172.425781 38.78125 L 172.425781 23.453125 L 174.292969 21.878906 C 173.339844 21.878906 172.710938 21.832031 172.328125 21.636719 L 172.328125 20.96875 C 172.042969 20.96875 171.757812 20.871094 171.472656 20.585938 C 171.234375 20.300781 170.707031 20.160156 169.9375 20.113281 L 169.75 20.113281 C 169.132812 20.160156 168.652344 20.300781 168.269531 20.585938 C 167.882812 20.871094 167.597656 20.96875 167.410156 20.96875 C 166.980469 20.96875 166.164062 20.632812 164.925781 19.867188 C 163.675781 20.632812 162.820312 20.96875 162.386719 20.96875 C 162.199219 20.96875 161.914062 20.871094 161.53125 20.585938 C 161.148438 20.300781 160.617188 20.160156 160.046875 20.113281 L 159.851562 20.113281 C 159.09375 20.160156 158.5625 20.300781 158.375 20.585938 C 157.992188 20.871094 157.660156 20.96875 157.464844 20.96875 L 157.464844 21.636719 C 157.078125 21.832031 156.410156 21.878906 155.507812 21.878906 L 157.375 23.453125 Z M 162.535156 25.554688 L 164.925781 24.886719 L 167.3125 25.554688 L 167.3125 36.679688 L 164.925781 37.300781 L 162.535156 36.679688 Z M 162.535156 25.554688 " fill-opacity="1" fill-rule="nonzero"></path><path fill="#ffffff" d="M 176.960938 49.574219 L 175.054688 51.144531 C 175.957031 51.144531 176.628906 51.246094 177.058594 51.382812 L 177.058594 52.050781 C 177.253906 52.050781 177.539062 52.195312 177.921875 52.433594 C 178.160156 52.765625 178.640625 52.914062 179.398438 52.914062 L 179.59375 52.914062 C 180.363281 52.914062 180.835938 52.765625 181.121094 52.433594 C 181.414062 52.195312 181.699219 52.050781 181.984375 52.050781 L 181.984375 51.382812 C 182.367188 51.246094 183.035156 51.144531 183.941406 51.144531 L 182.082031 49.574219 L 182.082031 38.351562 L 184.945312 39.449219 L 187.863281 38.351562 L 187.863281 49.574219 L 185.957031 51.144531 C 186.859375 51.144531 187.53125 51.246094 187.960938 51.382812 L 187.960938 52.050781 C 188.148438 52.050781 188.433594 52.195312 188.816406 52.433594 C 189.0625 52.765625 189.585938 52.914062 190.351562 52.914062 L 190.488281 52.914062 C 191.257812 52.914062 191.738281 52.765625 192.023438 52.433594 C 192.40625 52.195312 192.691406 52.050781 192.886719 52.050781 L 192.886719 51.382812 C 193.261719 51.246094 193.9375 51.144531 194.894531 51.144531 L 192.976562 49.574219 L 192.976562 23.453125 L 194.894531 21.921875 C 194.027344 21.921875 193.359375 21.832031 192.886719 21.636719 L 192.886719 20.96875 C 192.691406 20.96875 192.40625 20.871094 192.023438 20.585938 C 191.785156 20.300781 191.257812 20.160156 190.488281 20.113281 L 190.351562 20.113281 C 189.535156 20.160156 189.011719 20.300781 188.816406 20.585938 C 188.433594 20.871094 188.148438 20.96875 187.960938 20.96875 L 187.960938 21.636719 C 187.433594 21.832031 186.761719 21.921875 185.957031 21.921875 L 187.863281 23.453125 L 187.863281 33.195312 L 184.945312 34.246094 L 182.082031 33.195312 L 182.082031 23.453125 L 183.941406 21.921875 C 183.132812 21.921875 182.464844 21.832031 181.984375 21.636719 L 181.984375 20.96875 C 181.699219 20.96875 181.414062 20.871094 181.121094 20.585938 C 180.882812 20.300781 180.363281 20.160156 179.59375 20.113281 L 179.398438 20.113281 C 178.640625 20.160156 178.109375 20.300781 177.921875 20.585938 C 177.539062 20.871094 177.253906 20.96875 177.058594 20.96875 L 177.058594 21.636719 C 176.539062 21.832031 175.867188 21.921875 175.054688 21.921875 L 176.960938 23.453125 Z M 176.960938 49.574219 " fill-opacity="1" fill-rule="nonzero"></path><path fill="#ffffff" d="M 198.476562 49.574219 L 196.609375 51.144531 C 197.515625 51.144531 198.183594 51.246094 198.566406 51.382812 L 198.566406 52.050781 C 198.8125 52.050781 199.097656 52.195312 199.429688 52.433594 C 199.667969 52.765625 200.195312 52.914062 200.957031 52.914062 L 201.152344 52.914062 C 201.867188 52.914062 202.339844 52.765625 202.636719 52.433594 C 203.019531 52.195312 203.304688 52.050781 203.492188 52.050781 L 203.492188 51.382812 C 203.875 51.246094 204.542969 51.144531 205.496094 51.144531 L 203.589844 49.574219 L 203.589844 39.921875 L 206.027344 39.253906 L 208.464844 39.921875 L 208.464844 49.574219 L 206.597656 51.144531 C 207.511719 51.144531 208.179688 51.246094 208.5625 51.382812 L 208.5625 52.050781 C 208.75 52.050781 209.085938 52.195312 209.46875 52.433594 C 209.703125 52.765625 210.1875 52.914062 210.953125 52.914062 L 211.140625 52.914062 C 211.859375 52.914062 212.339844 52.765625 212.625 52.433594 C 213.007812 52.195312 213.292969 52.050781 213.527344 52.050781 L 213.527344 51.382812 C 213.914062 51.246094 214.53125 51.144531 215.496094 51.144531 L 213.625 49.574219 L 213.625 23.453125 L 215.496094 21.921875 C 214.628906 21.921875 213.960938 21.832031 213.527344 21.636719 L 213.527344 20.96875 C 213.292969 20.96875 213.007812 20.871094 212.625 20.585938 C 212.386719 20.300781 211.90625 20.160156 211.140625 20.113281 L 210.953125 20.113281 C 210.285156 20.160156 209.753906 20.300781 209.371094 20.585938 C 208.988281 20.871094 208.703125 20.96875 208.5625 20.96875 C 208.179688 20.96875 207.316406 20.632812 206.027344 19.867188 C 204.78125 20.632812 203.972656 20.96875 203.492188 20.96875 C 203.351562 20.96875 203.109375 20.871094 202.726562 20.585938 C 202.339844 20.300781 201.820312 20.160156 201.152344 20.113281 L 200.957031 20.113281 C 200.148438 20.160156 199.617188 20.300781 199.429688 20.585938 C 199.097656 20.871094 198.8125 20.96875 198.566406 20.96875 L 198.566406 21.636719 C 198.09375 21.832031 197.472656 21.921875 196.609375 21.921875 L 198.476562 23.453125 Z M 203.589844 34.765625 L 203.589844 25.121094 L 206.027344 24.453125 L 208.464844 25.121094 L 208.464844 34.765625 L 206.027344 34.097656 Z M 203.589844 34.765625 " fill-opacity="1" fill-rule="nonzero"></path><path fill="#ffffff" d="M 234.035156 11.46875 C 235.28125 11.46875 236.621094 11.65625 238.054688 11.992188 C 236.472656 10.800781 234.851562 10.175781 233.21875 10.175781 C 231.261719 10.175781 229.828125 10.941406 228.875 12.421875 C 228.351562 13.1875 228.105469 13.945312 228.105469 14.710938 C 228.105469 15.527344 228.351562 16.339844 228.824219 17.148438 C 229.6875 18.628906 231.457031 19.347656 234.132812 19.347656 C 236.808594 19.347656 240.535156 18.582031 245.222656 17.007812 L 247.132812 16.480469 L 249.617188 17.148438 L 249.617188 30.042969 L 244.839844 32.429688 L 244.742188 32.378906 L 244.742188 18.484375 C 244.171875 18.679688 243.304688 18.914062 242.164062 19.25 C 241.015625 19.632812 240.199219 19.867188 239.628906 20.0625 L 239.628906 33.625 L 237.8125 34.628906 C 238.054688 34.765625 238.390625 34.960938 238.863281 35.199219 L 239.628906 35.582031 L 239.628906 55.535156 L 237.722656 57.066406 C 238.527344 57.066406 239.195312 57.164062 239.726562 57.351562 L 239.726562 58.019531 C 240.011719 58.019531 240.296875 58.167969 240.582031 58.402344 C 240.679688 58.5 240.828125 58.972656 241.015625 59.738281 C 241.203125 60.503906 241.398438 61.269531 241.636719 61.9375 C 241.832031 62.605469 242.019531 62.941406 242.214844 62.941406 C 242.304688 62.941406 242.5 62.605469 242.734375 61.9375 C 242.921875 61.269531 243.167969 60.503906 243.355469 59.738281 C 243.550781 58.972656 243.691406 58.5 243.789062 58.402344 C 244.074219 58.167969 244.359375 58.019531 244.652344 58.019531 L 244.742188 58.019531 L 244.742188 57.304688 C 245.125 57.164062 245.792969 57.066406 246.65625 57.066406 L 244.742188 55.535156 L 244.742188 36.777344 L 249.617188 39.117188 L 249.617188 49.613281 L 247.757812 51.195312 C 248.613281 51.195312 249.285156 51.292969 249.714844 51.429688 L 249.714844 52.097656 C 249.902344 52.097656 250.148438 52.246094 250.480469 52.480469 C 250.570312 52.628906 250.71875 53.0625 250.90625 53.816406 C 251.101562 54.582031 251.339844 55.347656 251.582031 56.015625 C 251.820312 56.683594 252.007812 57.019531 252.203125 57.019531 C 252.339844 57.019531 252.539062 56.683594 252.726562 55.96875 C 252.921875 55.300781 253.15625 54.535156 253.34375 53.769531 C 253.539062 53.011719 253.636719 52.578125 253.679688 52.480469 C 253.972656 52.296875 254.257812 52.148438 254.640625 52.148438 L 254.640625 51.429688 C 255.023438 51.292969 255.691406 51.195312 256.550781 51.195312 L 256.648438 51.195312 L 254.640625 49.613281 L 254.640625 36.484375 L 250 34.148438 L 254.640625 31.808594 L 254.640625 15.046875 L 256.648438 13.472656 C 255.878906 13.472656 255.261719 13.425781 254.878906 13.277344 C 254.496094 13.1875 254.257812 13.042969 254.160156 12.855469 C 254.0625 12.707031 253.972656 12.5625 253.921875 12.375 C 253.824219 12.1875 253.679688 12.039062 253.394531 11.894531 C 253.109375 11.804688 252.726562 11.707031 252.203125 11.707031 C 251.535156 11.707031 251.003906 11.84375 250.621094 12.136719 C 250.238281 12.421875 249.953125 12.5625 249.765625 12.5625 C 249.285156 12.5625 248.425781 12.226562 247.132812 11.46875 C 245.558594 12.375 243.304688 13.277344 240.347656 14.238281 C 237.378906 15.191406 234.988281 15.625 233.082031 15.625 C 231.410156 15.625 230.449219 15.289062 230.160156 14.574219 C 230.070312 14.378906 229.972656 14.09375 229.972656 13.808594 C 229.972656 13.613281 230.023438 13.375 230.113281 13.089844 C 230.257812 12.660156 230.59375 12.324219 231.164062 12.039062 C 231.980469 11.65625 232.933594 11.46875 234.035156 11.46875 Z M 234.035156 11.46875 " fill-opacity="1" fill-rule="nonzero"></path><path fill="#ffffff" d="M 264.144531 20.585938 C 263.90625 20.300781 263.386719 20.160156 262.621094 20.113281 L 262.421875 20.113281 C 261.664062 20.160156 261.136719 20.300781 260.949219 20.585938 C 260.5625 20.871094 260.277344 20.96875 260.082031 20.96875 L 260.082031 21.636719 C 259.5625 21.832031 258.894531 21.921875 258.078125 21.921875 L 259.984375 23.453125 L 259.984375 49.574219 L 258.078125 51.144531 C 258.984375 51.144531 259.652344 51.246094 260.082031 51.382812 L 260.082031 52.050781 C 260.277344 52.050781 260.5625 52.195312 260.949219 52.433594 C 261.183594 52.765625 261.664062 52.914062 262.421875 52.914062 L 262.621094 52.914062 C 263.386719 52.914062 263.859375 52.765625 264.144531 52.433594 C 264.4375 52.195312 264.722656 52.050781 265.007812 52.050781 L 265.007812 51.382812 C 265.390625 51.246094 266.011719 51.144531 266.964844 51.144531 L 265.105469 49.574219 L 265.105469 23.453125 L 266.964844 21.921875 C 266.109375 21.921875 265.441406 21.832031 265.007812 21.636719 L 265.007812 20.96875 C 264.722656 20.96875 264.4375 20.871094 264.144531 20.585938 Z M 264.144531 20.585938 " fill-opacity="1" fill-rule="nonzero"></path><path fill="#ffffff" d="M 269.933594 49.574219 L 268.066406 51.144531 C 268.972656 51.144531 269.640625 51.246094 270.023438 51.382812 L 270.023438 52.050781 C 270.269531 52.050781 270.554688 52.195312 270.890625 52.433594 C 271.125 52.765625 271.65625 52.914062 272.414062 52.914062 L 272.609375 52.914062 C 273.328125 52.914062 273.800781 52.765625 274.09375 52.433594 C 274.476562 52.195312 274.761719 52.050781 274.949219 52.050781 C 275.382812 52.097656 276.199219 52.480469 277.4375 53.148438 C 278.636719 52.433594 279.492188 52.050781 280.0625 52.050781 C 280.257812 52.050781 280.542969 52.195312 280.925781 52.480469 C 281.3125 52.765625 281.832031 52.914062 282.5 52.914062 C 283.167969 52.914062 283.601562 52.816406 283.886719 52.628906 C 284.179688 52.433594 284.320312 52.246094 284.320312 52.050781 C 284.320312 51.863281 284.515625 51.628906 284.9375 51.429688 C 285.324219 51.246094 285.992188 51.144531 286.953125 51.144531 L 284.9375 49.574219 L 284.9375 39.546875 C 284.703125 39.449219 284.464844 39.214844 284.222656 38.734375 C 283.9375 38.253906 283.367188 38.015625 282.5 38.015625 C 281.929688 38.015625 281.546875 38.066406 281.3125 38.164062 C 281.023438 38.253906 280.878906 38.398438 280.78125 38.496094 C 280.691406 38.636719 280.496094 38.78125 280.308594 38.871094 C 280.113281 38.96875 279.6875 39.066406 279.011719 39.164062 C 278.34375 39.253906 277.386719 39.304688 276.238281 39.304688 C 277.871094 40.640625 279.109375 41.640625 279.925781 42.316406 L 279.925781 47.472656 L 277.4375 48.140625 L 275.046875 47.472656 L 275.046875 25.554688 L 277.4375 24.886719 L 279.925781 25.554688 L 279.925781 28.421875 L 278.058594 29.992188 C 278.824219 29.992188 279.394531 30.089844 279.777344 30.1875 C 280.160156 30.328125 280.445312 30.472656 280.542969 30.613281 C 280.640625 30.808594 280.691406 30.945312 280.78125 31.140625 C 280.828125 31.328125 280.976562 31.476562 281.261719 31.574219 C 281.546875 31.710938 281.929688 31.761719 282.5 31.761719 C 283.167969 31.761719 283.601562 31.664062 283.886719 31.476562 C 284.179688 31.28125 284.320312 31.09375 284.320312 30.90625 C 284.320312 30.710938 284.515625 30.472656 284.9375 30.277344 C 285.324219 30.089844 285.992188 29.992188 286.953125 29.992188 L 284.9375 28.421875 L 284.9375 23.453125 L 286.953125 21.921875 C 285.992188 21.921875 285.324219 21.832031 284.9375 21.636719 C 284.515625 21.449219 284.320312 21.253906 284.320312 21.015625 C 284.320312 20.828125 284.179688 20.585938 283.886719 20.398438 C 283.601562 20.203125 283.167969 20.113281 282.5 20.113281 C 281.832031 20.113281 281.3125 20.25 280.925781 20.535156 C 280.542969 20.828125 280.257812 20.96875 280.0625 20.96875 C 279.492188 20.96875 278.636719 20.632812 277.4375 19.867188 C 276.199219 20.632812 275.332031 20.96875 274.949219 20.96875 C 274.761719 20.96875 274.476562 20.871094 274.09375 20.585938 C 273.710938 20.300781 273.179688 20.160156 272.609375 20.113281 L 272.414062 20.113281 C 271.605469 20.160156 271.078125 20.300781 270.890625 20.585938 C 270.554688 20.871094 270.269531 20.96875 270.023438 20.96875 L 270.023438 21.636719 C 269.550781 21.832031 268.933594 21.921875 268.066406 21.921875 L 269.933594 23.453125 Z M 269.933594 49.574219 " fill-opacity="1" fill-rule="nonzero"></path><path fill="#ffffff" d="M 148.871094 55.78125 L 148.871094 55.359375 C 148.871094 55.226562 148.824219 55.128906 148.742188 55.066406 C 148.652344 54.984375 148.554688 54.933594 148.449219 54.933594 C 148.316406 54.933594 148.203125 54.984375 148.121094 55.066406 C 148.03125 55.128906 147.992188 55.226562 147.992188 55.359375 L 147.992188 60.3125 C 147.992188 60.441406 148.03125 60.554688 148.121094 60.636719 C 148.203125 60.703125 148.316406 60.734375 148.449219 60.734375 C 148.554688 60.734375 148.652344 60.703125 148.742188 60.636719 C 148.824219 60.554688 148.871094 60.441406 148.871094 60.3125 L 148.871094 58.8125 L 148.449219 58.8125 L 148.449219 58.160156 L 149.523438 58.160156 L 149.523438 61.386719 L 149.199219 61.386719 L 149.199219 61.09375 C 148.976562 61.289062 148.726562 61.386719 148.449219 61.386719 C 148.136719 61.386719 147.878906 61.289062 147.664062 61.09375 C 147.445312 60.882812 147.339844 60.621094 147.339844 60.3125 L 147.339844 55.359375 C 147.339844 55.210938 147.371094 55.066406 147.4375 54.933594 C 147.5 54.804688 147.574219 54.699219 147.664062 54.609375 C 147.769531 54.503906 147.894531 54.429688 148.023438 54.382812 C 148.152344 54.316406 148.292969 54.285156 148.449219 54.285156 C 148.578125 54.285156 148.707031 54.316406 148.839844 54.382812 C 148.96875 54.429688 149.082031 54.496094 149.199219 54.578125 L 149.199219 54.285156 L 149.523438 54.285156 L 149.523438 55.78125 Z M 148.871094 55.78125 " fill-opacity="1" fill-rule="nonzero"></path><path fill="#ffffff" d="M 150.3125 58.128906 L 150.3125 56.628906 L 150.640625 56.628906 L 150.640625 56.957031 C 150.851562 56.742188 151.113281 56.628906 151.421875 56.628906 C 151.722656 56.628906 151.976562 56.742188 152.171875 56.957031 C 152.382812 57.152344 152.5 57.402344 152.5 57.703125 L 152.5 61.058594 L 152.824219 61.058594 L 152.824219 61.386719 L 151.421875 61.386719 C 151.265625 61.386719 151.128906 61.371094 151 61.320312 C 150.867188 61.253906 150.746094 61.183594 150.640625 61.09375 C 150.550781 60.988281 150.476562 60.863281 150.410156 60.734375 C 150.347656 60.589844 150.3125 60.441406 150.3125 60.3125 L 150.3125 59.886719 C 150.3125 59.691406 150.347656 59.527344 150.410156 59.398438 C 150.476562 59.269531 150.550781 59.15625 150.640625 59.039062 C 150.722656 58.933594 150.8125 58.835938 150.902344 58.746094 C 151.007812 58.664062 151.113281 58.585938 151.226562 58.519531 C 151.421875 58.390625 151.570312 58.273438 151.683594 58.160156 C 151.789062 58.03125 151.847656 57.882812 151.847656 57.703125 C 151.847656 57.597656 151.796875 57.5 151.714844 57.410156 C 151.625 57.328125 151.527344 57.28125 151.421875 57.28125 C 151.292969 57.28125 151.179688 57.328125 151.097656 57.410156 C 151.007812 57.5 150.964844 57.597656 150.964844 57.703125 L 150.964844 58.128906 Z M 150.964844 60.3125 C 150.964844 60.425781 151.007812 60.523438 151.097656 60.605469 C 151.179688 60.695312 151.292969 60.734375 151.421875 60.734375 L 151.847656 60.734375 L 151.847656 58.878906 C 151.796875 58.902344 151.757812 58.933594 151.714844 58.976562 C 151.667969 59 151.625 59.03125 151.585938 59.074219 C 151.390625 59.203125 151.234375 59.324219 151.128906 59.429688 C 151.015625 59.546875 150.964844 59.691406 150.964844 59.886719 Z M 150.964844 60.3125 " fill-opacity="1" fill-rule="nonzero"></path><path fill="#ffffff" d="M 156.375 61.386719 L 156.375 57.703125 C 156.375 57.597656 156.324219 57.5 156.246094 57.410156 C 156.15625 57.328125 156.050781 57.28125 155.917969 57.28125 C 155.804688 57.28125 155.707031 57.328125 155.625 57.410156 C 155.535156 57.5 155.496094 57.597656 155.496094 57.703125 L 155.496094 61.058594 L 155.820312 61.058594 L 155.820312 61.386719 L 154.84375 61.386719 L 154.84375 57.703125 C 154.84375 57.597656 154.792969 57.5 154.710938 57.410156 C 154.621094 57.328125 154.523438 57.28125 154.417969 57.28125 L 153.992188 57.28125 L 153.992188 61.058594 L 154.320312 61.058594 L 154.320312 61.386719 L 153.015625 61.386719 L 153.015625 61.058594 L 153.339844 61.058594 L 153.339844 56.957031 L 153.015625 56.957031 L 153.015625 56.628906 L 154.417969 56.628906 C 154.746094 56.628906 154.988281 56.75 155.167969 56.988281 C 155.363281 56.75 155.609375 56.628906 155.917969 56.628906 C 156.21875 56.628906 156.472656 56.742188 156.667969 56.957031 C 156.878906 57.152344 156.996094 57.402344 156.996094 57.703125 L 156.996094 61.058594 L 157.320312 61.058594 L 157.320312 61.386719 Z M 156.375 61.386719 " fill-opacity="1" fill-rule="nonzero"></path><path fill="#ffffff" d="M 158.195312 55.621094 C 158.273438 55.621094 158.355469 55.667969 158.421875 55.75 C 158.503906 55.816406 158.550781 55.90625 158.550781 56.011719 C 158.550781 56.101562 158.503906 56.1875 158.421875 56.269531 C 158.355469 56.335938 158.273438 56.367188 158.195312 56.367188 C 158.078125 56.367188 157.996094 56.335938 157.933594 56.269531 C 157.867188 56.1875 157.835938 56.101562 157.835938 56.011719 C 157.835938 55.90625 157.867188 55.816406 157.933594 55.75 C 157.996094 55.667969 158.078125 55.621094 158.195312 55.621094 Z M 158.847656 61.386719 L 157.542969 61.386719 L 157.542969 61.058594 L 157.867188 61.058594 L 157.867188 56.988281 L 157.542969 56.988281 L 157.542969 56.660156 L 158.519531 56.660156 L 158.519531 61.058594 L 158.847656 61.058594 Z M 158.847656 61.386719 " fill-opacity="1" fill-rule="nonzero"></path><path fill="#ffffff" d="M 160.898438 61.386719 L 160.898438 57.703125 C 160.898438 57.597656 160.851562 57.5 160.769531 57.410156 C 160.679688 57.328125 160.574219 57.28125 160.441406 57.28125 L 160.019531 57.28125 L 160.019531 61.058594 L 160.34375 61.058594 L 160.34375 61.386719 L 159.039062 61.386719 L 159.039062 61.058594 L 159.367188 61.058594 L 159.367188 56.957031 L 159.039062 56.957031 L 159.039062 56.628906 L 160.441406 56.628906 C 160.746094 56.628906 160.996094 56.742188 161.191406 56.957031 C 161.40625 57.152344 161.519531 57.402344 161.519531 57.703125 L 161.519531 61.058594 L 161.84375 61.058594 L 161.84375 61.386719 Z M 160.898438 61.386719 " fill-opacity="1" fill-rule="nonzero"></path><path fill="#ffffff" d="M 164.863281 56.628906 L 164.863281 56.957031 L 164.210938 56.957031 C 164.421875 57.175781 164.535156 57.425781 164.535156 57.703125 L 164.535156 58.585938 C 164.535156 58.738281 164.503906 58.878906 164.4375 59.007812 C 164.371094 59.136719 164.289062 59.261719 164.210938 59.367188 C 164.121094 59.457031 163.996094 59.527344 163.851562 59.59375 C 163.71875 59.644531 163.589844 59.660156 163.460938 59.660156 C 163.34375 59.660156 163.261719 59.691406 163.199219 59.757812 C 163.148438 59.820312 163.132812 59.902344 163.132812 59.984375 C 163.132812 60.074219 163.148438 60.148438 163.199219 60.214844 C 163.261719 60.277344 163.34375 60.3125 163.460938 60.3125 L 163.882812 60.3125 C 164.03125 60.3125 164.175781 60.34375 164.308594 60.410156 C 164.4375 60.457031 164.542969 60.53125 164.632812 60.636719 C 164.738281 60.726562 164.8125 60.832031 164.863281 60.960938 C 164.925781 61.09375 164.960938 61.238281 164.960938 61.386719 C 164.960938 61.53125 164.925781 61.679688 164.863281 61.808594 C 164.8125 61.941406 164.738281 62.046875 164.632812 62.136719 C 164.542969 62.242188 164.4375 62.316406 164.308594 62.363281 C 164.175781 62.429688 164.03125 62.460938 163.882812 62.460938 L 163.003906 62.460938 C 162.871094 62.460938 162.726562 62.429688 162.578125 62.363281 C 162.449219 62.316406 162.332031 62.242188 162.253906 62.136719 C 162.164062 62.046875 162.089844 61.941406 162.023438 61.808594 C 161.957031 61.679688 161.925781 61.53125 161.925781 61.386719 C 161.925781 61.175781 161.976562 60.980469 162.089844 60.800781 C 162.21875 60.628906 162.382812 60.5 162.578125 60.410156 C 162.511719 60.261719 162.480469 60.117188 162.480469 59.984375 C 162.480469 59.75 162.554688 59.546875 162.707031 59.367188 C 162.59375 59.261719 162.511719 59.136719 162.449219 59.007812 C 162.382812 58.878906 162.351562 58.738281 162.351562 58.585938 L 162.351562 57.703125 C 162.351562 57.574219 162.382812 57.445312 162.449219 57.3125 C 162.511719 57.167969 162.585938 57.042969 162.675781 56.957031 C 162.78125 56.875 162.90625 56.792969 163.035156 56.726562 C 163.164062 56.660156 163.304688 56.628906 163.460938 56.628906 Z M 163.003906 58.585938 C 163.003906 58.699219 163.042969 58.796875 163.132812 58.878906 C 163.214844 58.96875 163.328125 59.007812 163.460938 59.007812 C 163.566406 59.007812 163.664062 58.96875 163.753906 58.878906 C 163.835938 58.796875 163.882812 58.699219 163.882812 58.585938 L 163.882812 57.703125 C 163.882812 57.597656 163.835938 57.5 163.753906 57.410156 C 163.664062 57.328125 163.566406 57.28125 163.460938 57.28125 C 163.328125 57.28125 163.214844 57.328125 163.132812 57.410156 C 163.042969 57.5 163.003906 57.597656 163.003906 57.703125 Z M 163.882812 61.808594 C 163.988281 61.808594 164.085938 61.761719 164.175781 61.679688 C 164.257812 61.589844 164.308594 61.492188 164.308594 61.386719 C 164.308594 61.253906 164.257812 61.15625 164.175781 61.09375 C 164.085938 61.011719 163.988281 60.960938 163.882812 60.960938 L 163.003906 60.960938 C 162.886719 60.960938 162.789062 61.011719 162.707031 61.09375 C 162.617188 61.15625 162.578125 61.253906 162.578125 61.386719 C 162.578125 61.492188 162.617188 61.589844 162.707031 61.679688 C 162.789062 61.761719 162.886719 61.808594 163.003906 61.808594 Z M 163.882812 61.808594 " fill-opacity="1" fill-rule="nonzero"></path><path fill="#ffffff" d="M 169.015625 54.285156 C 169.164062 54.285156 169.308594 54.316406 169.441406 54.382812 C 169.570312 54.429688 169.675781 54.503906 169.765625 54.609375 C 169.871094 54.699219 169.945312 54.804688 169.996094 54.933594 C 170.058594 55.066406 170.09375 55.210938 170.09375 55.359375 L 170.09375 57.738281 C 170.09375 57.890625 170.058594 58.03125 169.996094 58.160156 C 169.945312 58.273438 169.871094 58.378906 169.765625 58.488281 C 169.675781 58.574219 169.570312 58.648438 169.441406 58.714844 C 169.308594 58.78125 169.164062 58.8125 169.015625 58.8125 L 168.59375 58.8125 L 168.59375 61.058594 L 168.917969 61.058594 L 168.917969 61.386719 L 167.613281 61.386719 L 167.613281 61.058594 L 167.941406 61.058594 L 167.941406 54.609375 L 167.613281 54.609375 L 167.613281 54.285156 Z M 169.441406 55.359375 C 169.441406 55.226562 169.390625 55.128906 169.308594 55.066406 C 169.21875 54.984375 169.121094 54.933594 169.015625 54.933594 L 168.59375 54.933594 L 168.59375 58.160156 L 169.015625 58.160156 C 169.121094 58.160156 169.21875 58.121094 169.308594 58.03125 C 169.390625 57.949219 169.441406 57.851562 169.441406 57.738281 Z M 169.441406 55.359375 " fill-opacity="1" fill-rule="nonzero"></path><path fill="#ffffff" d="M 172.433594 55.78125 L 172.433594 55.359375 C 172.433594 55.226562 172.386719 55.128906 172.304688 55.066406 C 172.214844 54.984375 172.117188 54.933594 172.011719 54.933594 C 171.882812 54.933594 171.765625 54.984375 171.683594 55.066406 C 171.59375 55.128906 171.554688 55.226562 171.554688 55.359375 L 171.554688 60.3125 C 171.554688 60.441406 171.59375 60.554688 171.683594 60.636719 C 171.765625 60.703125 171.882812 60.734375 172.011719 60.734375 C 172.117188 60.734375 172.214844 60.703125 172.304688 60.636719 C 172.386719 60.554688 172.433594 60.441406 172.433594 60.3125 L 172.433594 58.160156 L 173.085938 58.160156 L 173.085938 60.3125 C 173.085938 60.464844 173.054688 60.605469 172.988281 60.734375 C 172.925781 60.863281 172.835938 60.988281 172.730469 61.09375 C 172.640625 61.183594 172.535156 61.253906 172.402344 61.320312 C 172.273438 61.371094 172.140625 61.386719 172.011719 61.386719 C 171.703125 61.386719 171.441406 61.289062 171.230469 61.09375 C 171.007812 60.882812 170.902344 60.621094 170.902344 60.3125 L 170.902344 55.359375 C 170.902344 55.210938 170.933594 55.066406 171 54.933594 C 171.066406 54.804688 171.140625 54.699219 171.230469 54.609375 C 171.335938 54.503906 171.457031 54.429688 171.585938 54.382812 C 171.71875 54.316406 171.855469 54.285156 172.011719 54.285156 C 172.140625 54.285156 172.273438 54.316406 172.402344 54.382812 C 172.535156 54.429688 172.648438 54.496094 172.761719 54.578125 L 172.761719 54.285156 L 173.085938 54.285156 L 173.085938 55.78125 Z M 172.433594 55.78125 " fill-opacity="1" fill-rule="nonzero"></path><path fill="#ffffff" d="M 173.910156 58.160156 L 176.066406 58.160156 L 176.066406 58.78125 L 173.910156 58.78125 Z M 173.910156 58.160156 " fill-opacity="1" fill-rule="nonzero"></path><path fill="#ffffff" d="M 179.070312 56.011719 C 179.070312 56.1875 179.023438 56.359375 178.941406 56.53125 C 178.851562 56.6875 178.726562 56.808594 178.582031 56.890625 L 178.582031 57.019531 C 178.726562 57.132812 178.851562 57.265625 178.941406 57.410156 C 179.023438 57.566406 179.070312 57.738281 179.070312 57.933594 L 179.070312 60.3125 C 179.070312 60.621094 178.957031 60.882812 178.746094 61.09375 C 178.546875 61.289062 178.296875 61.386719 177.996094 61.386719 L 176.589844 61.386719 L 176.589844 61.058594 L 176.917969 61.058594 L 176.917969 54.609375 L 176.589844 54.609375 L 176.589844 54.285156 L 177.996094 54.285156 C 178.140625 54.285156 178.289062 54.316406 178.417969 54.382812 C 178.546875 54.429688 178.65625 54.503906 178.746094 54.609375 C 178.851562 54.699219 178.925781 54.804688 178.972656 54.933594 C 179.039062 55.066406 179.070312 55.210938 179.070312 55.359375 Z M 178.417969 55.359375 C 178.417969 55.226562 178.371094 55.128906 178.289062 55.066406 C 178.199219 54.984375 178.101562 54.933594 177.996094 54.933594 L 177.570312 54.933594 L 177.570312 56.660156 L 177.996094 56.660156 C 178.101562 56.660156 178.199219 56.621094 178.289062 56.53125 C 178.371094 56.425781 178.417969 56.320312 178.417969 56.207031 Z M 178.417969 57.738281 C 178.417969 57.605469 178.371094 57.5 178.289062 57.410156 C 178.199219 57.328125 178.101562 57.28125 177.996094 57.28125 L 177.570312 57.28125 L 177.570312 60.734375 L 177.996094 60.734375 C 178.101562 60.734375 178.199219 60.703125 178.289062 60.636719 C 178.371094 60.554688 178.417969 60.441406 178.417969 60.3125 Z M 178.417969 57.738281 " fill-opacity="1" fill-rule="nonzero"></path><path fill="#ffffff" d="M 182.394531 61.058594 L 182.394531 61.386719 L 180.992188 61.386719 C 180.835938 61.386719 180.699219 61.371094 180.566406 61.320312 C 180.4375 61.253906 180.316406 61.183594 180.210938 61.09375 C 180.121094 60.988281 180.046875 60.863281 179.980469 60.734375 C 179.933594 60.589844 179.914062 60.441406 179.914062 60.3125 L 179.914062 56.957031 L 179.589844 56.957031 L 179.589844 56.628906 L 180.566406 56.628906 L 180.566406 60.34375 C 180.566406 60.457031 180.609375 60.554688 180.699219 60.636719 C 180.78125 60.703125 180.878906 60.734375 180.992188 60.734375 L 181.414062 60.734375 L 181.414062 56.957031 L 181.089844 56.957031 L 181.089844 56.628906 L 182.066406 56.628906 L 182.066406 61.058594 Z M 182.394531 61.058594 " fill-opacity="1" fill-rule="nonzero"></path><path fill="#ffffff" d="M 183.246094 55.621094 C 183.328125 55.621094 183.410156 55.667969 183.476562 55.75 C 183.558594 55.816406 183.605469 55.90625 183.605469 56.011719 C 183.605469 56.101562 183.558594 56.1875 183.476562 56.269531 C 183.410156 56.335938 183.328125 56.367188 183.246094 56.367188 C 183.132812 56.367188 183.050781 56.335938 182.988281 56.269531 C 182.921875 56.1875 182.890625 56.101562 182.890625 56.011719 C 182.890625 55.90625 182.921875 55.816406 182.988281 55.75 C 183.050781 55.667969 183.132812 55.621094 183.246094 55.621094 Z M 183.898438 61.386719 L 182.59375 61.386719 L 182.59375 61.058594 L 182.921875 61.058594 L 182.921875 56.988281 L 182.59375 56.988281 L 182.59375 56.660156 L 183.574219 56.660156 L 183.574219 61.058594 L 183.898438 61.058594 Z M 183.898438 61.386719 " fill-opacity="1" fill-rule="nonzero"></path><path fill="#ffffff" d="M 185.398438 61.386719 L 184.09375 61.386719 L 184.09375 61.058594 L 184.421875 61.058594 L 184.421875 54.609375 L 184.09375 54.609375 L 184.09375 54.285156 L 185.074219 54.285156 L 185.074219 61.058594 L 185.398438 61.058594 Z M 185.398438 61.386719 " fill-opacity="1" fill-rule="nonzero"></path><path fill="#ffffff" d="M 188.070312 54.285156 L 188.070312 61.058594 L 188.398438 61.058594 L 188.398438 61.386719 L 186.996094 61.386719 C 186.839844 61.386719 186.703125 61.371094 186.570312 61.320312 C 186.441406 61.253906 186.320312 61.183594 186.210938 61.09375 C 186.121094 60.988281 186.050781 60.863281 185.984375 60.734375 C 185.917969 60.605469 185.886719 60.464844 185.886719 60.3125 L 185.886719 57.738281 C 185.886719 57.589844 185.917969 57.445312 185.984375 57.3125 C 186.050781 57.183594 186.121094 57.078125 186.210938 56.988281 C 186.320312 56.882812 186.441406 56.808594 186.570312 56.757812 C 186.703125 56.695312 186.839844 56.660156 186.996094 56.660156 C 187.125 56.660156 187.265625 56.6875 187.417969 56.726562 L 187.417969 54.609375 L 187.09375 54.609375 L 187.09375 54.285156 Z M 186.539062 60.3125 C 186.539062 60.441406 186.578125 60.554688 186.667969 60.636719 C 186.75 60.703125 186.863281 60.734375 186.996094 60.734375 L 187.417969 60.734375 L 187.417969 57.738281 C 187.417969 57.605469 187.371094 57.5 187.289062 57.410156 C 187.199219 57.328125 187.101562 57.28125 186.996094 57.28125 C 186.863281 57.28125 186.75 57.328125 186.667969 57.410156 C 186.578125 57.5 186.539062 57.605469 186.539062 57.738281 Z M 186.539062 60.3125 " fill-opacity="1" fill-rule="nonzero"></path><path fill="#ffffff" d="M 190.414062 58.128906 L 190.414062 57.703125 C 190.414062 57.597656 190.367188 57.5 190.285156 57.410156 C 190.195312 57.328125 190.097656 57.28125 189.992188 57.28125 C 189.859375 57.28125 189.746094 57.328125 189.664062 57.410156 C 189.574219 57.5 189.535156 57.597656 189.535156 57.703125 C 189.535156 57.882812 189.566406 58.046875 189.632812 58.191406 C 189.714844 58.324219 189.8125 58.445312 189.925781 58.550781 C 190.054688 58.664062 190.171875 58.773438 190.285156 58.878906 C 190.414062 58.992188 190.527344 59.105469 190.644531 59.234375 C 190.773438 59.367188 190.871094 59.519531 190.9375 59.691406 C 191.019531 59.847656 191.066406 60.050781 191.066406 60.3125 C 191.066406 60.441406 191.035156 60.589844 190.96875 60.734375 C 190.90625 60.863281 190.824219 60.988281 190.742188 61.09375 C 190.652344 61.183594 190.527344 61.253906 190.382812 61.320312 C 190.253906 61.371094 190.121094 61.386719 189.992188 61.386719 C 189.835938 61.386719 189.699219 61.371094 189.566406 61.320312 C 189.4375 61.253906 189.3125 61.183594 189.207031 61.09375 C 189.117188 60.988281 189.046875 60.863281 188.980469 60.734375 C 188.914062 60.589844 188.882812 60.441406 188.882812 60.3125 L 188.882812 59.886719 L 189.535156 59.886719 L 189.535156 60.3125 C 189.535156 60.425781 189.574219 60.523438 189.664062 60.605469 C 189.746094 60.695312 189.859375 60.734375 189.992188 60.734375 C 190.097656 60.734375 190.195312 60.695312 190.285156 60.605469 C 190.367188 60.523438 190.414062 60.425781 190.414062 60.3125 C 190.414062 60.140625 190.367188 59.984375 190.285156 59.855469 C 190.21875 59.722656 190.121094 59.609375 189.992188 59.496094 C 189.875 59.367188 189.761719 59.261719 189.632812 59.171875 C 189.519531 59.066406 189.402344 58.941406 189.273438 58.8125 C 189.160156 58.683594 189.0625 58.535156 188.980469 58.355469 C 188.914062 58.183594 188.882812 57.964844 188.882812 57.703125 C 188.882812 57.574219 188.914062 57.445312 188.980469 57.3125 C 189.046875 57.167969 189.117188 57.042969 189.207031 56.957031 C 189.3125 56.875 189.4375 56.792969 189.566406 56.726562 C 189.699219 56.660156 189.835938 56.628906 189.992188 56.628906 C 190.269531 56.628906 190.519531 56.742188 190.742188 56.957031 L 190.742188 56.628906 L 191.066406 56.628906 L 191.066406 58.128906 Z M 190.414062 58.128906 " fill-opacity="1" fill-rule="nonzero"></path><path fill="#ffffff" d="M 191.828125 62.167969 L 191.53125 62.003906 L 191.890625 61.386719 C 191.738281 61.34375 191.664062 61.238281 191.664062 61.058594 C 191.664062 60.953125 191.695312 60.863281 191.761719 60.800781 C 191.84375 60.734375 191.933594 60.703125 192.023438 60.703125 C 192.128906 60.703125 192.21875 60.734375 192.28125 60.800781 C 192.363281 60.863281 192.414062 60.953125 192.414062 61.058594 C 192.414062 61.125 192.390625 61.191406 192.347656 61.253906 Z M 191.828125 62.167969 " fill-opacity="1" fill-rule="nonzero"></path><path fill="#ffffff" d="M 197.082031 61.386719 L 196.234375 57.378906 L 196.070312 57.410156 L 196.234375 58.191406 L 196.234375 61.058594 L 196.5625 61.058594 L 196.5625 61.386719 L 195.257812 61.386719 L 195.257812 61.058594 L 195.582031 61.058594 L 195.582031 54.609375 L 195.257812 54.609375 L 195.257812 54.285156 L 196.234375 54.285156 L 197.082031 58.324219 L 197.277344 58.289062 L 197.082031 57.507812 L 197.082031 54.609375 L 196.757812 54.609375 L 196.757812 54.285156 L 198.0625 54.285156 L 198.0625 54.609375 L 197.734375 54.609375 L 197.734375 61.386719 Z M 197.082031 61.386719 " fill-opacity="1" fill-rule="nonzero"></path><path fill="#ffffff" d="M 199.207031 59.007812 L 199.207031 60.3125 C 199.207031 60.441406 199.25 60.554688 199.339844 60.636719 C 199.421875 60.703125 199.535156 60.734375 199.664062 60.734375 C 199.769531 60.734375 199.867188 60.703125 199.957031 60.636719 C 200.039062 60.554688 200.089844 60.441406 200.089844 60.3125 L 200.089844 59.886719 L 200.742188 59.886719 L 200.742188 60.3125 C 200.742188 60.621094 200.625 60.882812 200.414062 61.09375 C 200.21875 61.289062 199.964844 61.386719 199.664062 61.386719 C 199.507812 61.386719 199.371094 61.371094 199.242188 61.320312 C 199.109375 61.253906 198.988281 61.183594 198.882812 61.09375 C 198.792969 60.988281 198.71875 60.863281 198.652344 60.734375 C 198.589844 60.605469 198.554688 60.464844 198.554688 60.3125 L 198.554688 57.738281 C 198.554688 57.589844 198.589844 57.445312 198.652344 57.3125 C 198.71875 57.183594 198.792969 57.078125 198.882812 56.988281 C 198.988281 56.882812 199.109375 56.808594 199.242188 56.757812 C 199.371094 56.695312 199.507812 56.660156 199.664062 56.660156 C 199.964844 56.660156 200.21875 56.777344 200.414062 56.988281 C 200.625 57.183594 200.742188 57.4375 200.742188 57.738281 L 200.742188 58.683594 L 201.066406 58.683594 L 201.066406 59.007812 Z M 200.089844 57.738281 C 200.089844 57.605469 200.039062 57.5 199.957031 57.410156 C 199.867188 57.328125 199.769531 57.28125 199.664062 57.28125 C 199.535156 57.28125 199.421875 57.328125 199.339844 57.410156 C 199.25 57.5 199.207031 57.605469 199.207031 57.738281 L 199.207031 58.390625 L 200.089844 58.390625 Z M 200.089844 57.738281 " fill-opacity="1" fill-rule="nonzero"></path><path fill="#ffffff" d="M 202.203125 56.628906 L 202.5625 58.84375 L 202.5625 59.886719 L 202.757812 59.886719 L 202.757812 58.84375 L 203.117188 56.628906 L 203.738281 56.628906 L 204.09375 58.84375 L 204.09375 59.886719 L 204.257812 59.886719 L 204.257812 58.84375 L 204.550781 56.957031 L 204.257812 56.957031 L 204.257812 56.628906 L 205.5625 56.628906 L 205.5625 56.957031 L 205.203125 56.957031 L 204.488281 61.386719 L 203.835938 61.386719 L 203.507812 59.171875 L 203.507812 58.160156 L 203.3125 58.160156 L 203.3125 59.171875 L 202.984375 61.386719 L 202.332031 61.386719 L 201.617188 56.957031 L 201.257812 56.957031 L 201.257812 56.628906 Z M 202.203125 56.628906 " fill-opacity="1" fill-rule="nonzero"></path><path fill="#ffffff" d="M 207.601562 58.128906 L 207.601562 57.703125 C 207.601562 57.597656 207.550781 57.5 207.472656 57.410156 C 207.382812 57.328125 207.285156 57.28125 207.175781 57.28125 C 207.046875 57.28125 206.933594 57.328125 206.851562 57.410156 C 206.761719 57.5 206.722656 57.597656 206.722656 57.703125 C 206.722656 57.882812 206.753906 58.046875 206.820312 58.191406 C 206.898438 58.324219 206.996094 58.445312 207.113281 58.550781 C 207.242188 58.664062 207.355469 58.773438 207.472656 58.878906 C 207.601562 58.992188 207.714844 59.105469 207.828125 59.234375 C 207.960938 59.367188 208.058594 59.519531 208.125 59.691406 C 208.203125 59.847656 208.253906 60.050781 208.253906 60.3125 C 208.253906 60.441406 208.222656 60.589844 208.15625 60.734375 C 208.089844 60.863281 208.007812 60.988281 207.925781 61.09375 C 207.839844 61.183594 207.714844 61.253906 207.570312 61.320312 C 207.4375 61.371094 207.308594 61.386719 207.175781 61.386719 C 207.023438 61.386719 206.882812 61.371094 206.753906 61.320312 C 206.621094 61.253906 206.5 61.183594 206.394531 61.09375 C 206.304688 60.988281 206.230469 60.863281 206.167969 60.734375 C 206.101562 60.589844 206.070312 60.441406 206.070312 60.3125 L 206.070312 59.886719 L 206.722656 59.886719 L 206.722656 60.3125 C 206.722656 60.425781 206.761719 60.523438 206.851562 60.605469 C 206.933594 60.695312 207.046875 60.734375 207.175781 60.734375 C 207.285156 60.734375 207.382812 60.695312 207.472656 60.605469 C 207.550781 60.523438 207.601562 60.425781 207.601562 60.3125 C 207.601562 60.140625 207.550781 59.984375 207.472656 59.855469 C 207.40625 59.722656 207.308594 59.609375 207.175781 59.496094 C 207.0625 59.367188 206.949219 59.261719 206.820312 59.171875 C 206.703125 59.066406 206.589844 58.941406 206.460938 58.8125 C 206.34375 58.683594 206.246094 58.535156 206.167969 58.355469 C 206.101562 58.183594 206.070312 57.964844 206.070312 57.703125 C 206.070312 57.574219 206.101562 57.445312 206.167969 57.3125 C 206.230469 57.167969 206.304688 57.042969 206.394531 56.957031 C 206.5 56.875 206.621094 56.792969 206.753906 56.726562 C 206.882812 56.660156 207.023438 56.628906 207.175781 56.628906 C 207.453125 56.628906 207.707031 56.742188 207.925781 56.957031 L 207.925781 56.628906 L 208.253906 56.628906 L 208.253906 58.128906 Z M 207.601562 58.128906 " fill-opacity="1" fill-rule="nonzero"></path><path fill="#ffffff" d="M 214.398438 58.390625 L 214.398438 60.3125 C 214.398438 60.441406 214.363281 60.589844 214.300781 60.734375 C 214.25 60.863281 214.175781 60.988281 214.070312 61.09375 C 213.980469 61.183594 213.875 61.253906 213.746094 61.320312 C 213.613281 61.371094 213.46875 61.386719 213.320312 61.386719 L 212.699219 61.386719 C 212.546875 61.386719 212.40625 61.371094 212.277344 61.320312 C 212.144531 61.253906 212.023438 61.183594 211.917969 61.09375 C 211.828125 60.988281 211.753906 60.863281 211.691406 60.734375 C 211.625 60.589844 211.59375 60.441406 211.59375 60.3125 L 211.59375 57.507812 C 211.59375 57.363281 211.609375 57.230469 211.65625 57.117188 C 211.699219 57.011719 211.753906 56.914062 211.820312 56.824219 C 211.886719 56.742188 211.957031 56.652344 212.046875 56.5625 C 212.15625 56.484375 212.253906 56.417969 212.34375 56.367188 C 212.226562 56.261719 212.128906 56.132812 212.046875 55.976562 C 211.957031 55.804688 211.917969 55.601562 211.917969 55.359375 C 211.917969 55.058594 212.015625 54.804688 212.210938 54.609375 C 212.421875 54.398438 212.699219 54.285156 213.027344 54.285156 C 213.15625 54.285156 213.289062 54.316406 213.417969 54.382812 C 213.550781 54.429688 213.65625 54.503906 213.746094 54.609375 C 213.851562 54.699219 213.941406 54.804688 214.003906 54.933594 C 214.070312 55.066406 214.101562 55.210938 214.101562 55.359375 C 214.101562 55.601562 214.039062 55.804688 213.90625 55.976562 C 213.792969 56.132812 213.664062 56.261719 213.515625 56.367188 C 213.558594 56.417969 213.597656 56.457031 213.648438 56.5 C 213.6875 56.523438 213.71875 56.53125 213.746094 56.53125 L 213.320312 57.054688 C 213.273438 57.035156 213.207031 56.988281 213.125 56.921875 C 213.058594 56.855469 212.996094 56.808594 212.929688 56.757812 C 212.710938 56.890625 212.539062 57.011719 212.40625 57.117188 C 212.292969 57.230469 212.246094 57.363281 212.246094 57.507812 L 212.246094 60.3125 C 212.246094 60.425781 212.285156 60.523438 212.375 60.605469 C 212.457031 60.695312 212.570312 60.734375 212.699219 60.734375 L 213.320312 60.734375 C 213.449219 60.734375 213.558594 60.695312 213.648438 60.605469 C 213.726562 60.523438 213.777344 60.425781 213.777344 60.3125 L 213.777344 58.714844 L 213.449219 58.714844 L 213.449219 58.390625 Z M 213.027344 54.902344 C 212.898438 54.902344 212.78125 54.953125 212.699219 55.03125 C 212.609375 55.121094 212.570312 55.226562 212.570312 55.359375 C 212.570312 55.511719 212.601562 55.644531 212.667969 55.75 C 212.734375 55.839844 212.816406 55.929688 212.929688 56.011719 C 213.074219 55.90625 213.199219 55.804688 213.289062 55.71875 C 213.394531 55.609375 213.449219 55.488281 213.449219 55.359375 C 213.449219 55.226562 213.402344 55.121094 213.320312 55.03125 C 213.230469 54.953125 213.132812 54.902344 213.027344 54.902344 Z M 213.027344 54.902344 " fill-opacity="1" fill-rule="nonzero"></path><path fill="#ffffff" d="M 219.945312 56.011719 C 219.945312 56.1875 219.894531 56.359375 219.8125 56.53125 C 219.722656 56.6875 219.601562 56.808594 219.453125 56.890625 L 219.453125 57.019531 C 219.601562 57.132812 219.722656 57.265625 219.8125 57.410156 C 219.894531 57.566406 219.945312 57.738281 219.945312 57.933594 L 219.945312 60.3125 C 219.945312 60.621094 219.828125 60.882812 219.617188 61.09375 C 219.421875 61.289062 219.167969 61.386719 218.867188 61.386719 L 217.464844 61.386719 L 217.464844 61.058594 L 217.792969 61.058594 L 217.792969 54.609375 L 217.464844 54.609375 L 217.464844 54.285156 L 218.867188 54.285156 C 219.015625 54.285156 219.160156 54.316406 219.292969 54.382812 C 219.421875 54.429688 219.527344 54.503906 219.617188 54.609375 C 219.722656 54.699219 219.796875 54.804688 219.847656 54.933594 C 219.910156 55.066406 219.945312 55.210938 219.945312 55.359375 Z M 219.292969 55.359375 C 219.292969 55.226562 219.242188 55.128906 219.160156 55.066406 C 219.070312 54.984375 218.972656 54.933594 218.867188 54.933594 L 218.445312 54.933594 L 218.445312 56.660156 L 218.867188 56.660156 C 218.972656 56.660156 219.070312 56.621094 219.160156 56.53125 C 219.242188 56.425781 219.292969 56.320312 219.292969 56.207031 Z M 219.292969 57.738281 C 219.292969 57.605469 219.242188 57.5 219.160156 57.410156 C 219.070312 57.328125 218.972656 57.28125 218.867188 57.28125 L 218.445312 57.28125 L 218.445312 60.734375 L 218.867188 60.734375 C 218.972656 60.734375 219.070312 60.703125 219.160156 60.636719 C 219.242188 60.554688 219.292969 60.441406 219.292969 60.3125 Z M 219.292969 57.738281 " fill-opacity="1" fill-rule="nonzero"></path><path fill="#ffffff" d="M 221.765625 61.386719 L 220.460938 61.386719 L 220.460938 61.058594 L 220.789062 61.058594 L 220.789062 54.609375 L 220.460938 54.609375 L 220.460938 54.285156 L 221.441406 54.285156 L 221.441406 61.058594 L 221.765625 61.058594 Z M 221.765625 61.386719 " fill-opacity="1" fill-rule="nonzero"></path><path fill="#ffffff" d="M 223.363281 61.386719 C 223.207031 61.386719 223.070312 61.371094 222.941406 61.320312 C 222.808594 61.253906 222.6875 61.183594 222.582031 61.09375 C 222.492188 60.988281 222.417969 60.863281 222.351562 60.734375 C 222.289062 60.589844 222.253906 60.441406 222.253906 60.3125 L 222.253906 57.703125 C 222.253906 57.574219 222.289062 57.445312 222.351562 57.3125 C 222.417969 57.167969 222.492188 57.042969 222.582031 56.957031 C 222.6875 56.875 222.808594 56.792969 222.941406 56.726562 C 223.070312 56.660156 223.207031 56.628906 223.363281 56.628906 C 223.664062 56.628906 223.917969 56.742188 224.113281 56.957031 C 224.324219 57.152344 224.441406 57.402344 224.441406 57.703125 L 224.441406 60.3125 C 224.441406 60.441406 224.40625 60.589844 224.34375 60.734375 C 224.277344 60.863281 224.195312 60.988281 224.113281 61.09375 C 224.023438 61.183594 223.902344 61.253906 223.753906 61.320312 C 223.625 61.371094 223.496094 61.386719 223.363281 61.386719 Z M 223.363281 57.28125 C 223.234375 57.28125 223.121094 57.328125 223.039062 57.410156 C 222.949219 57.5 222.90625 57.597656 222.90625 57.703125 L 222.90625 60.3125 C 222.90625 60.425781 222.949219 60.523438 223.039062 60.605469 C 223.121094 60.695312 223.234375 60.734375 223.363281 60.734375 C 223.46875 60.734375 223.566406 60.695312 223.65625 60.605469 C 223.738281 60.523438 223.789062 60.425781 223.789062 60.3125 L 223.789062 57.703125 C 223.789062 57.597656 223.738281 57.5 223.65625 57.410156 C 223.566406 57.328125 223.46875 57.28125 223.363281 57.28125 Z M 223.363281 57.28125 " fill-opacity="1" fill-rule="nonzero"></path><path fill="#ffffff" d="M 227.742188 56.628906 L 227.742188 56.957031 L 227.089844 56.957031 C 227.300781 57.175781 227.414062 57.425781 227.414062 57.703125 L 227.414062 58.585938 C 227.414062 58.738281 227.382812 58.878906 227.316406 59.007812 C 227.25 59.136719 227.171875 59.261719 227.089844 59.367188 C 227 59.457031 226.875 59.527344 226.730469 59.59375 C 226.597656 59.644531 226.46875 59.660156 226.339844 59.660156 C 226.222656 59.660156 226.144531 59.691406 226.078125 59.757812 C 226.027344 59.820312 226.011719 59.902344 226.011719 59.984375 C 226.011719 60.074219 226.027344 60.148438 226.078125 60.214844 C 226.144531 60.277344 226.222656 60.3125 226.339844 60.3125 L 226.761719 60.3125 C 226.910156 60.3125 227.054688 60.34375 227.1875 60.410156 C 227.316406 60.457031 227.421875 60.53125 227.511719 60.636719 C 227.617188 60.726562 227.691406 60.832031 227.742188 60.960938 C 227.804688 61.09375 227.839844 61.238281 227.839844 61.386719 C 227.839844 61.53125 227.804688 61.679688 227.742188 61.808594 C 227.691406 61.941406 227.617188 62.046875 227.511719 62.136719 C 227.421875 62.242188 227.316406 62.316406 227.1875 62.363281 C 227.054688 62.429688 226.910156 62.460938 226.761719 62.460938 L 225.882812 62.460938 C 225.75 62.460938 225.605469 62.429688 225.457031 62.363281 C 225.328125 62.316406 225.214844 62.242188 225.132812 62.136719 C 225.042969 62.046875 224.96875 61.941406 224.902344 61.808594 C 224.839844 61.679688 224.804688 61.53125 224.804688 61.386719 C 224.804688 61.175781 224.855469 60.980469 224.96875 60.800781 C 225.097656 60.628906 225.261719 60.5 225.457031 60.410156 C 225.394531 60.261719 225.359375 60.117188 225.359375 59.984375 C 225.359375 59.75 225.433594 59.546875 225.589844 59.367188 C 225.472656 59.261719 225.394531 59.136719 225.328125 59.007812 C 225.261719 58.878906 225.230469 58.738281 225.230469 58.585938 L 225.230469 57.703125 C 225.230469 57.574219 225.261719 57.445312 225.328125 57.3125 C 225.394531 57.167969 225.464844 57.042969 225.554688 56.957031 C 225.660156 56.875 225.785156 56.792969 225.914062 56.726562 C 226.046875 56.660156 226.183594 56.628906 226.339844 56.628906 Z M 225.882812 58.585938 C 225.882812 58.699219 225.921875 58.796875 226.011719 58.878906 C 226.09375 58.96875 226.207031 59.007812 226.339844 59.007812 C 226.445312 59.007812 226.542969 58.96875 226.632812 58.878906 C 226.714844 58.796875 226.761719 58.699219 226.761719 58.585938 L 226.761719 57.703125 C 226.761719 57.597656 226.714844 57.5 226.632812 57.410156 C 226.542969 57.328125 226.445312 57.28125 226.339844 57.28125 C 226.207031 57.28125 226.09375 57.328125 226.011719 57.410156 C 225.921875 57.5 225.882812 57.597656 225.882812 57.703125 Z M 226.761719 61.808594 C 226.867188 61.808594 226.964844 61.761719 227.054688 61.679688 C 227.136719 61.589844 227.1875 61.492188 227.1875 61.386719 C 227.1875 61.253906 227.136719 61.15625 227.054688 61.09375 C 226.964844 61.011719 226.867188 60.960938 226.761719 60.960938 L 225.882812 60.960938 C 225.769531 60.960938 225.667969 61.011719 225.589844 61.09375 C 225.5 61.15625 225.457031 61.253906 225.457031 61.386719 C 225.457031 61.492188 225.5 61.589844 225.589844 61.679688 C 225.667969 61.761719 225.769531 61.808594 225.882812 61.808594 Z M 226.761719 61.808594 " fill-opacity="1" fill-rule="nonzero"></path><path fill="#ffffff" d="M 229.769531 58.128906 L 229.769531 57.703125 C 229.769531 57.597656 229.722656 57.5 229.640625 57.410156 C 229.550781 57.328125 229.453125 57.28125 229.347656 57.28125 C 229.214844 57.28125 229.101562 57.328125 229.019531 57.410156 C 228.929688 57.5 228.890625 57.597656 228.890625 57.703125 C 228.890625 57.882812 228.921875 58.046875 228.988281 58.191406 C 229.070312 58.324219 229.167969 58.445312 229.28125 58.550781 C 229.410156 58.664062 229.527344 58.773438 229.640625 58.878906 C 229.769531 58.992188 229.886719 59.105469 230 59.234375 C 230.128906 59.367188 230.226562 59.519531 230.292969 59.691406 C 230.375 59.847656 230.421875 60.050781 230.421875 60.3125 C 230.421875 60.441406 230.390625 60.589844 230.324219 60.734375 C 230.261719 60.863281 230.179688 60.988281 230.097656 61.09375 C 230.007812 61.183594 229.886719 61.253906 229.738281 61.320312 C 229.609375 61.371094 229.476562 61.386719 229.347656 61.386719 C 229.191406 61.386719 229.054688 61.371094 228.921875 61.320312 C 228.792969 61.253906 228.667969 61.183594 228.5625 61.09375 C 228.472656 60.988281 228.402344 60.863281 228.335938 60.734375 C 228.269531 60.589844 228.238281 60.441406 228.238281 60.3125 L 228.238281 59.886719 L 228.890625 59.886719 L 228.890625 60.3125 C 228.890625 60.425781 228.929688 60.523438 229.019531 60.605469 C 229.101562 60.695312 229.214844 60.734375 229.347656 60.734375 C 229.453125 60.734375 229.550781 60.695312 229.640625 60.605469 C 229.722656 60.523438 229.769531 60.425781 229.769531 60.3125 C 229.769531 60.140625 229.722656 59.984375 229.640625 59.855469 C 229.574219 59.722656 229.476562 59.609375 229.347656 59.496094 C 229.234375 59.367188 229.117188 59.261719 228.988281 59.171875 C 228.875 59.066406 228.757812 58.941406 228.628906 58.8125 C 228.515625 58.683594 228.417969 58.535156 228.335938 58.355469 C 228.269531 58.183594 228.238281 57.964844 228.238281 57.703125 C 228.238281 57.574219 228.269531 57.445312 228.335938 57.3125 C 228.402344 57.167969 228.472656 57.042969 228.5625 56.957031 C 228.667969 56.875 228.792969 56.792969 228.921875 56.726562 C 229.054688 56.660156 229.191406 56.628906 229.347656 56.628906 C 229.625 56.628906 229.875 56.742188 230.097656 56.957031 L 230.097656 56.628906 L 230.421875 56.628906 L 230.421875 58.128906 Z M 229.769531 58.128906 " fill-opacity="1" fill-rule="nonzero"></path></svg>